<svg xmlns="http://www.w3.org/2000/svg" viewBox="0 0 836 38" width="836" height="38" font-family="sans-serif" font-size="13">
  <defs>
    <marker id="arr" markerWidth="9" markerHeight="9" refX="7" refY="3" orient="auto">
      <path d="M0,0 L7,3 L0,6 Z" fill="#557"/>
    </marker>
  </defs>
  <g stroke="#557" stroke-width="1.5" fill="none" stroke-linejoin="round" stroke-linecap="round" marker-end="url(#arr)">
    <path d="M88,19 L124,19"/>
    <path d="M208,19 L244,19"/>
    <path d="M464,19 L500,19"/>
    <path d="M592,19 L628,19"/>
    <path d="M712,19 L748,19"/>
  </g>
  <g fill="#eef2ff" stroke="#557">
    <rect x="4" y="4" width="84" height="30" rx="6"/>
    <rect x="124" y="4" width="84" height="30" rx="6"/>
    <rect x="244" y="4" width="220" height="30" rx="6"/>
    <rect x="500" y="4" width="92" height="30" rx="6"/>
  </g>
  <g fill="#f3f0ff" stroke="#779">
    <rect x="628" y="4" width="84" height="30" rx="6"/>
    <rect x="748" y="4" width="84" height="30" rx="6"/>
  </g>
  <g text-anchor="middle" fill="#1a2a55">
    <text x="46" y="23">require</text>
    <text x="166" y="23">architect</text>
    <text x="354" y="23">backend·frontend·persistence·ml</text>
    <text x="546" y="23">verification</text>
  </g>
  <g text-anchor="middle" fill="#33305a">
    <text x="670" y="23">propose</text>
    <text x="790" y="23">apply</text>
  </g>
</svg>
